<svg width="23" height="20" viewBox="0 0 23 20" fill="none" xmlns="http://www.w3.org/2000/svg">
<mask id="path-1-inside-1_471_223" fill="white">
<path d="M11.5144 19.9724L21.1225 10.7861C23.3442 8.62314 23.8924 4.52185 21.1225 1.85322C17.8068 -1.34132 13.4688 0.0765216 11.5 2.48164C9.53115 0.0765216 5.19324 -1.34132 1.87746 1.85322C-0.892445 4.52185 -0.344234 8.62314 1.87746 10.7861L11.4856 19.9724V20L11.5 19.9862L11.5144 20V19.9724Z"/>
</mask>
<path d="M11.5144 19.9724L21.1225 10.7861C23.3442 8.62314 23.8924 4.52185 21.1225 1.85322C17.8068 -1.34132 13.4688 0.0765216 11.5 2.48164C9.53115 0.0765216 5.19324 -1.34132 1.87746 1.85322C-0.892445 4.52185 -0.344234 8.62314 1.87746 10.7861L11.4856 19.9724V20L11.5 19.9862L11.5144 20V19.9724Z" stroke="#212121" stroke-width="4" mask="url(#path-1-inside-1_471_223)"/>
</svg>
